<?xml version="1.0" standalone="no"?><!DOCTYPE svg PUBLIC "-//W3C//DTD SVG 1.1//EN" "http://www.w3.org/Graphics/SVG/1.1/DTD/svg11.dtd"><svg t="1789372837422" class="icon" viewBox="0 0 1024 1024" version="1.1" xmlns="http://www.w3.org/2000/svg" p-id="11735" xmlns:xlink="http://www.w3.org/1999/xlink" width="128" height="128"><path d="M512 96a181.333333 181.333333 0 1 1 0 362.666667 181.333333 181.333333 0 0 1 0-362.666667z m0 64a117.333333 117.333333 0 1 0 0 234.666667 117.333333 117.333333 0 0 0 0-234.666667zM622.933333 565.333333c125.909333 0 155.861333 2.432 194.389334 22.101334a202.666667 202.666667 0 0 1 88.576 88.576c19.626667 38.528 22.101333 68.48 22.101333 194.389333v25.6a32 32 0 0 1-32 32H128a32 32 0 0 1-32-32v-25.6c0-125.909333 2.432-155.861333 22.101333-194.389333a202.666667 202.666667 0 0 1 88.576-88.576c38.528-19.626667 68.48-22.101333 194.389334-22.101334h221.866666z m22.954667 64H378.112c-93.952 0.384-118.869333 3.114667-142.378667 15.104a138.666667 138.666667 0 0 0-60.586666 60.586667c-12.032 23.552-14.762667 48.469333-15.104 142.421333l-0.042667 16.554667h703.957333v-5.376c-0.128-99.370667-2.432-127.146667-13.738666-150.869333l-1.322667-2.688a138.666667 138.666667 0 0 0-60.586667-60.586667c-23.552-12.032-48.469333-14.762667-142.421333-15.104z" fill="#007AFF" p-id="11736"></path></svg>