<?xml version="1.0" standalone="no"?><!DOCTYPE svg PUBLIC "-//W3C//DTD SVG 1.1//EN" "http://www.w3.org/Graphics/SVG/1.1/DTD/svg11.dtd"><svg t="1789372822183" class="icon" viewBox="0 0 1024 1024" version="1.1" xmlns="http://www.w3.org/2000/svg" p-id="11249" xmlns:xlink="http://www.w3.org/1999/xlink" width="128" height="128"><path d="M867.74504347 160.03266667c-149.69976811-16.93566667-262.32675363-57.434-334.74353623-120.40650724l-19.04862317-16.55149276-20.55330437 14.66263767C379.9082029 118.76598551 267.66539131 159.8405797 159.8405797 159.8405797H127.82608696v448.20289856c0 137.4062029 121.14284057 262.03862319 370.37566667 381.03649275l13.09392753 6.24282609 13.35004348-5.7305942C771.18933333 883.68826087 896.17391304 755.34215943 896.17391304 608.04347826V163.26613044l-28.42886957-3.23346377zM832.14492754 608.04347826c0 116.85289856-107.44063768 223.46115943-319.4726232 316.94347827C299.77592754 821.16395653 191.85507246 714.55569566 191.85507246 608.04347826V222.84510144c104.7194058-6.78707246 211.67982609-46.70914493 318.64024638-118.99786955C587.26607246 162.36972464 695.25095653 201.39539131 832.14492754 220.12386956V608.04347826z" fill="#333333" p-id="11250"></path><path d="M359.70705797 468.65237681a32.01449276 32.01449276 0 1 0-47.98972464 42.41920289l121.84715943 137.8864203c12.61371014 14.24644927 30.18966667 21.57776811 47.92569565 21.57776811a64.41315943 64.41315943 0 0 0 49.71850725-23.53065218l197.68949275-242.82992752a32.01449276 32.01449276 0 0 0-49.65447827-40.43430434l-197.68949274 242.79791303-121.84715943-137.88642029z" fill="#333333" p-id="11251"></path></svg>